<svg width="85" height="110" viewBox="0 0 85 110" fill="none" xmlns="http://www.w3.org/2000/svg">
<g clip-path="url(#clip0_1_771)">
<path d="M76.8243 110H7.96738C3.56189 110 0 106.465 0 102.094V7.90631C0 3.53458 3.56189 0 7.96738 0H60.8145L84.7917 23.3841V102.094C84.7917 106.465 81.2298 110 76.8243 110Z" fill="#E8EDF3"/>
<path d="M76.8243 110H7.96738C3.56189 110 0 106.465 0 102.094V76.6261H84.7917V102.094C84.7917 106.465 81.2298 110 76.8243 110Z" fill="#0072FF"/>
<path d="M60.8145 0V15.4778C60.8145 19.8495 64.3764 23.3841 68.7819 23.3841H84.7917L60.8145 0Z" fill="#CADAE8"/>
<path d="M21.8962 87.3601H27.8765C29.2637 87.3601 30.4823 87.6205 31.5696 88.1228C32.6381 88.6437 33.463 89.3692 34.0629 90.318C34.644 91.2667 34.944 92.3643 34.944 93.6293C34.944 94.8943 34.644 96.0105 34.0629 96.9406C33.463 97.8894 32.6381 98.6149 31.5696 99.1358C30.501 99.6567 29.2637 99.8985 27.8765 99.8985H21.8962V87.3415V87.3601ZM27.7265 97.0895C28.8138 97.0895 29.6762 96.7918 30.3323 96.1779C30.9884 95.564 31.3259 94.7269 31.3259 93.6479C31.3259 92.5689 31.0072 91.7318 30.3323 91.1179C29.6762 90.504 28.8138 90.2063 27.7265 90.2063H25.4581V97.0895H27.7265Z" fill="white"/>
<path d="M39.5932 99.3218C38.5246 98.7637 37.681 97.9824 37.0811 96.9964C36.4812 96.0105 36.1625 94.8943 36.1625 93.6479C36.1625 92.4015 36.4625 91.2853 37.0811 90.2993C37.681 89.3134 38.5246 88.532 39.5932 87.974C40.6618 87.4159 41.8616 87.1368 43.1926 87.1368C44.5236 87.1368 45.7234 87.4159 46.792 87.974C47.8605 88.532 48.7041 89.3134 49.304 90.2993C49.9039 91.2853 50.2226 92.4015 50.2226 93.6479C50.2226 94.8943 49.9227 96.0105 49.304 96.9964C48.6854 97.9824 47.8605 98.7637 46.792 99.3218C45.7234 99.8799 44.5236 100.159 43.1926 100.159C41.8616 100.159 40.6618 99.8799 39.5932 99.3218ZM44.936 96.7732C45.4609 96.4756 45.8546 96.0477 46.1733 95.5082C46.4733 94.9687 46.6232 94.3362 46.6232 93.6293C46.6232 92.9224 46.4733 92.2899 46.1733 91.7504C45.8734 91.2109 45.4609 90.783 44.936 90.4854C44.4111 90.1877 43.8487 90.0389 43.1926 90.0389C42.5364 90.0389 41.974 90.1877 41.4491 90.4854C40.9242 90.783 40.5118 91.2109 40.2118 91.7504C39.9119 92.2899 39.7619 92.9224 39.7619 93.6293C39.7619 94.3362 39.9119 94.9501 40.2118 95.5082C40.5118 96.0477 40.9242 96.4756 41.4491 96.7732C41.974 97.0709 42.5364 97.2197 43.1926 97.2197C43.8487 97.2197 44.4111 97.0709 44.936 96.7732Z" fill="white"/>
<path d="M54.8531 99.3218C53.8032 98.7637 52.9784 98.001 52.3597 96.9964C51.7598 96.0105 51.4599 94.8757 51.4599 93.6293C51.4599 92.3829 51.7598 91.2481 52.3597 90.2621C52.9596 89.2762 53.7845 88.4948 54.8531 87.9367C55.9029 87.3787 57.1027 87.0996 58.415 87.0996C59.5773 87.0996 60.6083 87.3042 61.5457 87.7135C62.483 88.1228 63.2516 88.6995 63.8515 89.4622L61.5832 91.5085C60.7583 90.5226 59.7647 90.0389 58.6024 90.0389C57.9088 90.0389 57.3089 90.1877 56.7652 90.4854C56.2216 90.783 55.8092 91.2109 55.5092 91.7504C55.2093 92.2899 55.0593 92.9224 55.0593 93.6293C55.0593 94.3362 55.2093 94.9501 55.5092 95.5082C55.8092 96.0663 56.2216 96.4756 56.7652 96.7732C57.3089 97.0709 57.9088 97.2197 58.6024 97.2197C59.7647 97.2197 60.7583 96.736 61.5832 95.75L63.8515 97.7964C63.2329 98.5591 62.4643 99.1544 61.5457 99.5451C60.6271 99.9357 59.5773 100.159 58.415 100.159C57.0839 100.159 55.9029 99.8799 54.8531 99.3218Z" fill="white"/>
<path d="M68.5945 35.6063V35.1226C68.5945 34.1739 67.8258 33.4111 66.8698 33.4111H20.1715C19.2155 33.4111 18.4468 34.1739 18.4468 35.1226V35.6063C18.4468 36.5551 19.2155 37.3178 20.1715 37.3178H66.8698C67.8258 37.3178 68.5945 36.5551 68.5945 35.6063ZM68.5945 47.01V46.5263C68.5945 45.5775 67.8258 44.8148 66.8698 44.8148H20.1715C19.2155 44.8148 18.4468 45.5775 18.4468 46.5263V47.01C18.4468 47.9587 19.2155 48.7215 20.1715 48.7215H66.8698C67.8258 48.7215 68.5945 47.9587 68.5945 47.01ZM51.6099 58.4137V57.93C51.6099 56.9812 50.8413 56.2185 49.8852 56.2185H20.1715C19.2155 56.2185 18.4468 56.9812 18.4468 57.93V58.4137C18.4468 59.3624 19.2155 60.1252 20.1715 60.1252H49.9039C50.86 60.1252 51.6286 59.3624 51.6286 58.4137H51.6099Z" fill="#CADAE8"/>
</g>
<defs>
<clipPath id="clip0_1_771">
<rect width="84.7917" height="110" fill="white"/>
</clipPath>
</defs>
</svg>
