<svg width="85" height="110" viewBox="0 0 85 110" fill="none" xmlns="http://www.w3.org/2000/svg">
<g clip-path="url(#clip0_12_724)">
<path d="M76.8243 110H7.96738C3.56189 110 0 106.465 0 102.094V7.90631C0 3.53458 3.56189 0 7.96738 0H60.8145L84.7917 23.3841V102.094C84.7917 106.465 81.2298 110 76.8243 110Z" fill="#E8EDF3"/>
<path d="M76.8243 110H7.96738C3.56189 110 0 106.465 0 102.094V76.6261H84.7917V102.094C84.7917 106.465 81.2298 110 76.8243 110Z" fill="#00C650"/>
<path d="M60.8146 0V15.4778C60.8146 19.8495 64.3765 23.3841 68.782 23.3841H84.7917L60.8146 0Z" fill="#CADAE8"/>
<path d="M26.4892 99.6939C25.7394 99.3776 25.102 98.9126 24.6333 98.3173L26.583 96.0291C27.2578 96.9034 27.989 97.3313 28.7763 97.3313C29.3012 97.3313 29.6949 97.1825 29.9574 96.8662C30.2198 96.55 30.3698 96.1035 30.3698 95.5082V90.1133H26.0018V87.36H33.913V95.285C33.913 96.9034 33.5005 98.1312 32.6757 98.9498C31.8508 99.7683 30.6323 100.178 29.0388 100.178C28.1202 100.178 27.2766 100.029 26.508 99.6939H26.4892Z" fill="white"/>
<path d="M45.086 87.9182C45.9296 88.2902 46.5857 88.8297 47.0357 89.5366C47.4856 90.2435 47.7293 91.0621 47.7293 92.0108C47.7293 92.9596 47.5043 93.7781 47.0357 94.4664C46.567 95.1548 45.9296 95.6942 45.086 96.0663C44.2424 96.4384 43.2488 96.6244 42.1053 96.6244H39.8931V99.8985H36.3125V87.3415H42.0865C43.2301 87.3415 44.2236 87.5275 45.0672 87.8996L45.086 87.9182ZM43.5488 93.3503C43.9237 93.034 44.1112 92.5875 44.1112 91.9922C44.1112 91.3969 43.9237 90.9505 43.5488 90.6342C43.1738 90.318 42.6114 90.1505 41.8803 90.1505H39.8931V93.8339H41.8803C42.6114 93.8339 43.1738 93.6665 43.5488 93.3503Z" fill="white"/>
<path d="M58.1151 93.3689H61.2833V98.5777C60.5522 99.0986 59.7273 99.4893 58.79 99.7683C57.8526 100.047 56.9153 100.178 55.978 100.178C54.6469 100.178 53.4659 99.8985 52.3973 99.3404C51.3288 98.7824 50.5039 98.0196 49.904 97.0151C49.3041 96.0291 49.0042 94.8943 49.0042 93.6479C49.0042 92.4015 49.3041 91.2667 49.904 90.2807C50.5039 89.2948 51.3475 88.5135 52.4161 87.9554C53.4846 87.3973 54.7032 87.1182 56.0529 87.1182C57.234 87.1182 58.3026 87.3229 59.2399 87.7135C60.1772 88.1042 60.9646 88.6809 61.5832 89.425L59.3149 91.4713C58.4525 90.5412 57.4402 90.0761 56.2404 90.0761C55.1531 90.0761 54.2907 90.3924 53.6159 91.0621C52.9597 91.7132 52.6223 92.5875 52.6223 93.6665C52.6223 94.3548 52.7723 94.9873 53.0722 95.5268C53.3721 96.0663 53.8033 96.4942 54.3282 96.7918C54.8531 97.0895 55.4905 97.2569 56.1842 97.2569C56.8778 97.2569 57.5152 97.1267 58.1151 96.8476V93.4061V93.3689Z" fill="white"/>
<path d="M42.4052 68.3849C36.1813 68.3849 29.9761 68.3849 23.7522 68.3849C20.4715 68.3849 18.5219 66.4316 18.5219 63.1761C18.5219 54.7861 18.5219 46.3961 18.5219 38.0061C18.5219 34.7878 20.4903 32.8344 23.7147 32.8344C36.1813 32.8344 48.6292 32.8344 61.0958 32.8344C64.3202 32.8344 66.2886 34.7878 66.2886 38.0061C66.2886 46.4147 66.2886 54.8419 66.2886 63.2505C66.2886 66.413 64.3015 68.3849 61.1333 68.3849C54.8906 68.3849 48.6479 68.3849 42.4052 68.3849ZM35.5252 60.6088C35.394 60.5716 35.3752 60.5716 35.3565 60.553C33.8192 59.3438 32.282 58.1346 30.7447 56.9254C29.1138 55.6604 27.1641 55.7162 25.6644 57.1115C24.2021 58.4509 22.7586 59.8089 21.3339 61.1855C21.1839 61.3344 20.9777 61.539 20.9777 61.7064C20.9777 62.5622 20.9027 63.4551 21.0527 64.2922C21.2589 65.4642 22.215 66.0223 23.7147 66.0223C36.2001 66.0223 48.6854 66.0223 61.1708 66.0223C61.3395 66.0223 61.527 66.0223 61.6957 66.0223C63.0079 65.9293 63.9078 65.0178 63.9453 63.7156C63.9453 63.1575 63.9828 62.5808 63.9453 62.0227C63.9078 61.7436 63.7766 61.3902 63.5704 61.2041C59.821 57.6696 56.0716 54.135 52.3035 50.6376C50.5976 49.0563 48.5917 49.0563 46.8295 50.6376C45.2922 51.9956 43.755 53.3722 42.2178 54.7489C40.0057 56.7208 37.7748 58.6927 35.5627 60.6646L35.5252 60.6088ZM37.6436 44.759C37.6623 42.1174 35.5439 39.978 32.9006 39.9594C30.2761 39.9594 28.1202 42.043 28.1015 44.6288C28.064 47.2146 30.1823 49.3912 32.7694 49.4284C35.4314 49.4656 37.6248 47.3634 37.6436 44.759Z" fill="#CADAE8"/>
<path d="M35.5065 60.6088C37.7186 58.6369 39.9495 56.665 42.1616 54.6931C43.6988 53.335 45.2361 51.9584 46.7733 50.5818C48.5167 49.0191 50.5414 49.0191 52.2473 50.5818C56.0154 54.0978 59.7648 57.6137 63.5142 61.1483C63.7204 61.3344 63.8516 61.6878 63.8891 61.9669C63.9453 62.525 63.9266 63.1017 63.8891 63.6597C63.8516 64.962 62.9518 65.8735 61.6395 65.9665C61.4708 65.9665 61.2833 65.9665 61.1146 65.9665C48.6292 65.9665 36.1439 65.9665 23.6585 65.9665C22.1588 65.9665 21.2027 65.4084 20.9965 64.2364C20.8465 63.3993 20.9027 62.525 20.9215 61.6506C20.9215 61.4646 21.1277 61.2786 21.2777 61.1297C22.7212 59.7717 24.1647 58.4137 25.6082 57.0557C27.1079 55.6604 29.0576 55.6046 30.6886 56.8696C32.2258 58.0788 33.763 59.288 35.3003 60.4972C35.3003 60.4972 35.3378 60.4972 35.469 60.553L35.5065 60.6088Z" fill="#F3F5F9"/>
<path d="M37.6249 44.759C37.6061 47.3634 35.394 49.4656 32.7507 49.4284C30.1637 49.3912 28.0453 47.2146 28.0828 44.6288C28.1203 42.043 30.2761 39.9408 32.8819 39.9594C35.5252 39.9594 37.6436 42.136 37.6249 44.759Z" fill="#F3F5F9"/>
</g>
<defs>
<clipPath id="clip0_12_724">
<rect width="84.7917" height="110" fill="white"/>
</clipPath>
</defs>
</svg>
