<svg width="85" height="110" viewBox="0 0 85 110" fill="none" xmlns="http://www.w3.org/2000/svg">
<g clip-path="url(#clip0_12_1009)">
<path d="M76.8243 110H7.96738C3.56189 110 0 106.465 0 102.094V7.90631C0 3.53458 3.56189 0 7.96738 0H60.8145L84.7917 23.3841V102.094C84.7917 106.465 81.2298 110 76.8243 110Z" fill="#E8EDF3"/>
<path d="M76.8243 110H7.96738C3.56189 110 0 106.465 0 102.094V76.6261H84.7917V102.094C84.7917 106.465 81.2298 110 76.8243 110Z" fill="#E63A3A"/>
<path d="M60.8146 0V15.4778C60.8146 19.8495 64.3765 23.3841 68.782 23.3841H84.7917L60.8146 0Z" fill="#CADAE8"/>
<path d="M33.613 99.9171L33.5755 93.2572L30.3136 98.6707H28.7201L25.4769 93.4247V99.8985H22.1775V87.3414H25.1207L29.5637 94.5966L33.8942 87.3414H36.8375L36.875 99.8985H33.5943L33.613 99.9171Z" fill="white"/>
<path d="M48.198 87.9181C49.0417 88.2902 49.6978 88.8297 50.1477 89.5366C50.5976 90.2435 50.8413 91.0621 50.8413 92.0108C50.8413 92.9596 50.6164 93.7781 50.1477 94.4664C49.679 95.1547 49.0417 95.6942 48.198 96.0663C47.3544 96.4384 46.3609 96.6244 45.2173 96.6244H43.0052V99.8985H39.4246V87.3415H45.1986C46.3421 87.3415 47.3357 87.5275 48.1793 87.8995L48.198 87.9181ZM46.6608 93.3502C47.0357 93.034 47.2232 92.5875 47.2232 91.9922C47.2232 91.3969 47.0357 90.9504 46.6608 90.6342C46.2859 90.3179 45.7235 90.1505 44.9924 90.1505H43.0052V93.8339H44.9924C45.7235 93.8339 46.2859 93.6665 46.6608 93.3502Z" fill="white"/>
<path d="M63.4953 97.4987H61.6207V99.8985H58.1338V97.4987H51.4412V95.1919L57.1214 87.3601H60.8333L55.6779 94.6897H58.2462V92.5503H61.6207V94.6897H63.4953V97.4987Z" fill="white"/>
<path d="M42.4053 20.9285C30.0699 20.9285 20.0216 30.8811 20.0216 43.1219C20.0216 55.3628 30.0699 65.3154 42.4053 65.3154C54.7406 65.3154 64.7702 55.3628 64.7702 43.1219C64.7702 30.8811 54.7406 20.9285 42.4053 20.9285Z" fill="#CADAE8"/>
<path d="M37.2312 34.2855V51.977L51.235 43.1405L37.2312 34.2855Z" fill="#E8EDF3"/>
</g>
<defs>
<clipPath id="clip0_12_1009">
<rect width="84.7917" height="110" fill="white"/>
</clipPath>
</defs>
</svg>
