<svg width="85" height="110" viewBox="0 0 85 110" fill="none" xmlns="http://www.w3.org/2000/svg">
<g clip-path="url(#clip0_12_959)">
<path d="M76.8243 110H7.96738C3.56189 110 0 106.465 0 102.094V7.90631C0 3.53458 3.56189 0 7.96738 0H60.8145L84.7917 23.3841V102.094C84.7917 106.465 81.2298 110 76.8243 110Z" fill="#E8EDF3"/>
<path d="M0 76.6261H84.7917V102.094C84.7917 106.465 81.211 110 76.8243 110H7.96738C3.56189 110 0 106.447 0 102.094V76.6261Z" fill="#B0B7BD"/>
<path d="M60.8146 0V15.4778C60.8146 19.8495 64.3765 23.3841 68.782 23.3841H84.7917L60.8146 0Z" fill="#CADAE8"/>
<path d="M29.7886 46.1728C29.7698 48.7773 27.5577 50.8794 24.9144 50.8422C22.3274 50.805 20.209 48.6284 20.2465 46.0426C20.284 43.4568 22.4398 41.3546 25.0456 41.3732C27.6889 41.3732 29.8073 43.5498 29.7886 46.1728ZM42.4239 41.3732C39.7993 41.3732 37.6435 43.4568 37.6247 46.0426C37.5872 48.6284 39.7056 50.805 42.2927 50.8422C44.9547 50.8794 47.1481 48.7773 47.1668 46.1728C47.1856 43.5312 45.0672 41.3918 42.4239 41.3732ZM59.8022 41.3732C57.1776 41.3732 55.0217 43.4568 55.003 46.0426C54.9655 48.6284 57.0839 50.805 59.6709 50.8422C62.333 50.8794 64.5263 48.7773 64.5451 46.1728C64.5638 43.5312 62.4455 41.3918 59.8022 41.3732Z" fill="#CADAE8"/>
<path d="M46.5294 91.4155L46.0983 95.0059H49.2477V98.2243H45.7046L45.2359 101.945H41.8053L42.2739 98.2243H39.1807L38.712 101.945H35.2814L35.7688 98.2243H32.6006V95.0059H36.1812L36.6124 91.4155H33.4442V88.1972H37.0248L37.4935 84.4766H40.9242L40.4555 88.1972H43.5487L44.0361 84.4766H47.4668L46.9981 88.1972H50.1663V91.4155H46.5857H46.5294ZM43.0988 91.4155H40.0056L39.5744 95.0059H42.6676L43.0988 91.4155Z" fill="white"/>
</g>
<defs>
<clipPath id="clip0_12_959">
<rect width="84.7917" height="110" fill="white"/>
</clipPath>
</defs>
</svg>
