<svg width="85" height="110" viewBox="0 0 85 110" fill="none" xmlns="http://www.w3.org/2000/svg">
<g clip-path="url(#clip0_12_832)">
<path d="M76.8243 110H7.96738C3.56189 110 0 106.465 0 102.094V7.90631C0 3.53458 3.56189 0 7.96738 0H60.8145L84.7917 23.3841V102.094C84.7917 106.465 81.2298 110 76.8243 110Z" fill="#E8EDF3"/>
<path d="M76.8243 110H7.96738C3.56189 110 0 106.465 0 102.094V76.6261H84.7917V102.094C84.7917 106.465 81.2298 110 76.8243 110Z" fill="#FF3E4C"/>
<path d="M60.8146 0V15.4778C60.8146 19.8495 64.3765 23.3841 68.782 23.3841H84.7917L60.8146 0Z" fill="#CADAE8"/>
<path d="M35.019 87.9176C35.8626 88.2896 36.5187 88.8291 36.9686 89.536C37.4186 90.243 37.6623 91.0615 37.6623 92.0103C37.6623 92.959 37.4373 93.7775 36.9686 94.4659C36.5 95.1542 35.8626 95.6937 35.019 96.0657C34.1754 96.4378 33.1818 96.6238 32.0382 96.6238H29.8261V99.898H26.2455V87.3409H32.0195C33.163 87.3409 34.1566 87.5269 35.0002 87.899L35.019 87.9176ZM33.4817 93.3497C33.8567 93.0334 34.0441 92.5869 34.0441 91.9917C34.0441 91.3964 33.8567 90.9499 33.4817 90.6336C33.1068 90.3174 32.5444 90.1499 31.8133 90.1499H29.8261V93.8334H31.8133C32.5444 93.8334 33.1068 93.6659 33.4817 93.3497Z" fill="white"/>
<path d="M39.387 87.3601H45.3672C46.7544 87.3601 47.973 87.6205 49.0603 88.1228C50.1289 88.6437 50.9537 89.3692 51.5536 90.318C52.1348 91.2667 52.4347 92.3643 52.4347 93.6293C52.4347 94.8943 52.1348 96.0105 51.5536 96.9406C50.9537 97.8894 50.1289 98.6149 49.0603 99.1358C47.9917 99.6567 46.7544 99.8985 45.3672 99.8985H39.387V87.3415V87.3601ZM45.2172 97.0895C46.3045 97.0895 47.1669 96.7918 47.823 96.1779C48.4791 95.564 48.8166 94.7269 48.8166 93.6479C48.8166 92.5689 48.4979 91.7318 47.823 91.1179C47.1669 90.504 46.3045 90.2063 45.2172 90.2063H42.9488V97.0895H45.2172Z" fill="white"/>
<path d="M57.9088 90.0947V92.848H63.4953V95.5826H57.9088V99.8799H54.3281V87.3228H64.2452V90.0761H57.9088V90.0947Z" fill="white"/>
<path d="M42.9113 29.7091C42.8738 32.5182 42.1614 35.1598 41.1679 37.7643C40.9617 38.2851 40.7367 38.806 40.5492 39.3269C40.493 39.4571 40.5117 39.6618 40.5492 39.7734C42.4989 43.4568 45.011 46.6565 48.4229 49.1121C48.6666 49.2796 48.8728 49.354 49.1727 49.2796C51.7973 48.6843 54.4406 48.275 57.1401 48.4424C59.3897 48.5726 61.5269 49.0749 63.3828 50.4143C63.964 50.8422 64.5264 51.3445 64.9388 51.9212C65.8199 53.1304 65.4824 54.5628 64.1889 55.3256C62.9704 56.0511 61.6206 56.2557 60.2333 56.2929C56.9152 56.3487 53.8219 55.4744 50.86 54.0419C50.0538 53.6513 49.2665 53.1676 48.4791 52.7583C48.3291 52.6839 48.1417 52.6095 47.9917 52.6653C43.5675 53.8373 39.162 55.0465 34.7377 56.2185C33.8004 56.4604 33.2567 56.944 32.8256 57.837C31.682 60.2554 30.351 62.5622 28.6075 64.6271C27.6889 65.7061 26.6766 66.692 25.4581 67.4362C24.5395 67.9943 23.5459 68.3663 22.4398 68.1989C20.0965 67.8454 18.7842 65.5945 19.5903 63.3435C20.134 61.7994 21.2026 60.6274 22.4023 59.5671C24.8394 57.3719 27.6514 55.7906 30.6884 54.5628C31.0634 54.414 31.2883 54.2094 31.4383 53.8373C32.9193 50.0981 34.419 46.3775 35.9 42.6569C36.2375 41.8011 36.5937 40.9268 36.9686 40.0896C37.0811 39.8292 37.0811 39.606 36.9686 39.3641C36.0313 37.3736 35.3001 35.3273 34.9814 33.1507C34.6065 30.6207 34.794 28.1465 36.1062 25.8955C36.4999 25.2258 36.9873 24.5933 37.5685 24.091C38.7308 23.105 40.2868 23.2911 41.2991 24.4072C42.1989 25.3746 42.5739 26.5652 42.7426 27.8302C42.8363 28.4813 42.8551 29.1324 42.9113 29.7835V29.7091ZM38.9183 43.1592C37.6622 46.3961 36.3874 49.633 35.1127 52.8886C38.4496 52.0142 41.7303 51.1585 44.9735 50.3213C43.8862 49.1865 42.7426 48.1076 41.7303 46.9356C40.718 45.745 39.8556 44.4428 38.8995 43.1592H38.9183ZM28.9825 58.6555C28.87 58.6741 28.8137 58.6741 28.795 58.6927C26.9578 59.6973 25.2144 60.8507 23.7709 62.3761C23.2647 62.9156 22.871 63.5667 22.4586 64.1992C22.3086 64.4225 22.2524 64.7015 22.4961 64.962C22.7585 65.2224 23.0585 65.2224 23.3397 65.0736C23.7896 64.8317 24.2583 64.5713 24.6707 64.255C26.5454 62.7296 27.8014 60.7577 29.0012 58.6369L28.9825 58.6555ZM38.7495 35.5505C38.8995 35.0482 39.0495 34.6203 39.162 34.1925C39.6869 32.295 40.0056 30.3788 39.7806 28.4069C39.7056 27.7744 39.5744 27.1605 39.2182 26.5838C37.606 27.979 37.3248 32.9647 38.7308 35.5505H38.7495ZM61.8268 53.0188C59.0898 51.0655 56.0341 51.2515 52.9408 51.6422C55.7716 52.87 58.6961 53.6327 61.8268 53.0188Z" fill="#CADAE8"/>
</g>
<defs>
<clipPath id="clip0_12_832">
<rect width="84.7917" height="110" fill="white"/>
</clipPath>
</defs>
</svg>
