<svg width="85" height="110" viewBox="0 0 85 110" fill="none" xmlns="http://www.w3.org/2000/svg">
<g clip-path="url(#clip0_12_359)">
<path d="M76.8243 110H7.96738C3.56189 110 0 106.465 0 102.094V7.90631C0 3.53458 3.56189 0 7.96738 0H60.8145L84.7917 23.3841V102.094C84.7917 106.465 81.2298 110 76.8243 110Z" fill="#E8EDF3"/>
<path d="M76.8243 110H7.96738C3.56189 110 0 106.465 0 102.094V76.6261H84.7917V102.094C84.7917 106.465 81.2298 110 76.8243 110Z" fill="#FF9908"/>
<path d="M60.8145 0V15.4778C60.8145 19.8495 64.3764 23.3841 68.7819 23.3841H84.7916L60.8145 0Z" fill="#CADAE8"/>
<path d="M35.0377 87.9181C35.8813 88.2902 36.5375 88.8297 36.9874 89.5366C37.4373 90.2435 37.681 91.062 37.681 92.0108C37.681 92.9596 37.456 93.7781 36.9874 94.4664C36.5187 95.1547 35.8813 95.6942 35.0377 96.0663C34.1941 96.4383 33.2005 96.6244 32.057 96.6244H29.8449V99.8985H26.2642V87.3414H32.0382C33.1818 87.3414 34.1754 87.5275 35.019 87.8995L35.0377 87.9181ZM33.5005 93.3502C33.8754 93.034 34.0629 92.5875 34.0629 91.9922C34.0629 91.3969 33.8754 90.9504 33.5005 90.6342C33.1255 90.3179 32.5631 90.1505 31.832 90.1505H29.8449V93.8339H31.832C32.5631 93.8339 33.1255 93.6665 33.5005 93.3502Z" fill="white"/>
<path d="M48.1792 87.9181C49.0228 88.2902 49.6789 88.8297 50.1289 89.5366C50.5788 90.2435 50.8225 91.062 50.8225 92.0108C50.8225 92.9596 50.5975 93.7781 50.1289 94.4664C49.6602 95.1547 49.0228 95.6942 48.1792 96.0663C47.3356 96.4383 46.342 96.6244 45.1985 96.6244H42.9863V99.8985H39.4057V87.3414H45.1797C46.3233 87.3414 47.3168 87.5275 48.1604 87.8995L48.1792 87.9181ZM46.642 93.3502C47.0169 93.034 47.2044 92.5875 47.2044 91.9922C47.2044 91.3969 47.0169 90.9504 46.642 90.6342C46.267 90.3179 45.7046 90.1505 44.9735 90.1505H42.9863V93.8339H44.9735C45.7046 93.8339 46.267 93.6665 46.642 93.3502Z" fill="white"/>
<path d="M54.9468 90.1691H51.0662V87.36H62.3893V90.1691H58.5274V99.8985H54.9468V90.1691Z" fill="white"/>
<path d="M20.434 44.6288C20.434 33.6716 29.3949 24.7793 40.4368 24.7793V44.6288H20.434Z" fill="#CADAE8"/>
<path d="M24.3708 48.5354C24.3708 59.4926 33.3317 68.3849 44.3736 68.3849C55.4154 68.3849 64.3764 59.4926 64.3764 48.5354C64.3764 37.5782 55.4154 28.6859 44.3736 28.6859V48.5354H24.3708Z" fill="#CADAE8"/>
</g>
<defs>
<clipPath id="clip0_12_359">
<rect width="84.7917" height="110" fill="white"/>
</clipPath>
</defs>
</svg>
