<svg width="85" height="110" viewBox="0 0 85 110" fill="none" xmlns="http://www.w3.org/2000/svg">
<g clip-path="url(#clip0_12_887)">
<path d="M76.8243 110H7.96738C3.56189 110 0 106.465 0 102.094V7.90631C0 3.53458 3.56189 0 7.96738 0H60.8145L84.7917 23.3841V102.094C84.7917 106.465 81.2298 110 76.8243 110Z" fill="#E8EDF3"/>
<path d="M76.8243 110H7.96738C3.56189 110 0 106.465 0 102.094V76.6261H84.7917V102.094C84.7917 106.465 81.2298 110 76.8243 110Z" fill="#A140FF"/>
<path d="M60.8145 0V15.4778C60.8145 19.8495 64.3764 23.3841 68.7819 23.3841H84.7916L60.8145 0Z" fill="#CADAE8"/>
<path d="M38.2996 87.3601L34.1941 99.9171H30.3698L27.9514 92.2713L25.4206 99.9171H21.5963L17.4907 87.3601H21.1838L23.7334 95.378L26.4142 87.3601H29.6949L32.2444 95.4524L34.9065 87.3601H38.3184H38.2996Z" fill="white"/>
<path d="M47.6168 97.4801H42.274L41.2804 99.9171H37.6248L43.2113 87.3601H46.7357L52.341 99.9171H48.6104L47.6168 97.4801ZM46.567 94.8571L44.936 90.8388L43.305 94.8571H46.567Z" fill="white"/>
<path d="M65.4825 87.3601L60.0646 99.9171H56.5402L51.1412 87.3601H55.003L58.4337 95.5454L61.9393 87.3601H65.4825Z" fill="white"/>
<path d="M67.5259 47.3634H59.9709V43.9033C59.9709 42.8243 59.0898 41.9499 58.0025 41.9499C56.9152 41.9499 56.0341 42.8243 56.0341 43.9033V47.3634H53.2596V40.3687C53.2596 39.2897 52.3785 38.4154 51.2912 38.4154C50.2039 38.4154 49.3228 39.2897 49.3228 40.3687V47.3634H42.1802V45.931C42.1802 44.852 41.2992 43.9777 40.2118 43.9777C39.1245 43.9777 38.2434 44.852 38.2434 45.931V47.3634H35.4689V39.1223C35.4689 38.0433 34.5878 37.169 33.5005 37.169C32.4132 37.169 31.5321 38.0433 31.5321 39.1223V47.3634H28.7576V32.3322C28.7576 31.2532 27.8765 30.3788 26.7891 30.3788C25.7018 30.3788 24.8207 31.2532 24.8207 32.3322V47.3634H17.247C16.1597 47.3634 15.2786 48.2378 15.2786 49.3168C15.2786 50.3957 16.1597 51.2701 17.247 51.2701H24.8207V66.3014C24.8207 67.3803 25.7018 68.2547 26.7891 68.2547C27.8765 68.2547 28.7576 67.3803 28.7576 66.3014V51.2701H31.5321V59.5112C31.5321 60.5902 32.4132 61.4646 33.5005 61.4646C34.5878 61.4646 35.4689 60.5902 35.4689 59.5112V51.2701H38.2434V52.7025C38.2434 53.7815 39.1245 54.6558 40.2118 54.6558C41.2992 54.6558 42.1802 53.7815 42.1802 52.7025V51.2701H49.3228V58.2648C49.3228 59.3438 50.2039 60.2182 51.2912 60.2182C52.3785 60.2182 53.2596 59.3438 53.2596 58.2648V51.2701H56.0341V54.7303C56.0341 55.8092 56.9152 56.6836 58.0025 56.6836C59.0898 56.6836 59.9709 55.8092 59.9709 54.7303V51.2701H67.5259C68.6132 51.2701 69.4943 50.3957 69.4943 49.3168C69.4943 48.2378 68.6132 47.3634 67.5259 47.3634Z" fill="#CADAE8"/>
</g>
<defs>
<clipPath id="clip0_12_887">
<rect width="84.7917" height="110" fill="white"/>
</clipPath>
</defs>
</svg>
