<svg width="85" height="110" viewBox="0 0 85 110" fill="none" xmlns="http://www.w3.org/2000/svg">
<g clip-path="url(#clip0_12_781)">
<path d="M76.8243 110H7.96738C3.56189 110 0 106.465 0 102.094V7.90631C0 3.53458 3.56189 0 7.96738 0H60.8145L84.7917 23.3841V102.094C84.7917 106.465 81.2298 110 76.8243 110Z" fill="#E8EDF3"/>
<path d="M76.8243 110H7.96738C3.56189 110 0 106.465 0 102.094V76.6261H84.7917V102.094C84.7917 106.465 81.2298 110 76.8243 110Z" fill="#329E5E"/>
<path d="M60.8145 0V15.4778C60.8145 19.8495 64.3764 23.3841 68.7819 23.3841H84.7917L60.8145 0Z" fill="#CADAE8"/>
<path d="M33.613 99.9171L30.9884 96.0291L28.4014 99.9171H24.3146L28.9263 93.5735L24.5208 87.3601H28.5513L31.0822 90.9877L33.5755 87.3601H37.4373L33.0318 93.4247L37.7373 99.9171H33.613Z" fill="white"/>
<path d="M38.5809 87.3601H42.1615V97.0895H48.198V99.8985H38.5809V87.3415V87.3601Z" fill="white"/>
<path d="M51.0287 99.7869C50.0727 99.5265 49.2853 99.2102 48.6854 98.7823L49.8664 96.1593C50.4288 96.5314 51.085 96.829 51.8349 97.0523C52.5847 97.2755 53.3158 97.3871 54.047 97.3871C55.4155 97.3871 56.1091 97.0523 56.1091 96.3639C56.1091 96.0105 55.9217 95.7314 55.528 95.564C55.1343 95.3966 54.5156 95.2106 53.6345 95.0245C52.6785 94.8199 51.8911 94.5966 51.2537 94.3734C50.6163 94.1502 50.0727 93.7595 49.604 93.2572C49.1353 92.7549 48.9104 92.048 48.9104 91.1737C48.9104 90.411 49.1166 89.7226 49.5477 89.1087C49.9789 88.4948 50.5976 88.0112 51.4412 87.6391C52.2848 87.2856 53.2971 87.0996 54.5156 87.0996C55.3405 87.0996 56.1654 87.1926 56.9715 87.3787C57.7776 87.5647 58.49 87.8437 59.1086 88.1972L58.0025 90.8388C56.8028 90.1877 55.6217 89.8715 54.4969 89.8715C53.7845 89.8715 53.2596 89.9831 52.9409 90.1877C52.6222 90.3924 52.4535 90.6714 52.4535 91.0063C52.4535 91.3411 52.641 91.583 53.0346 91.7504C53.4283 91.9178 54.047 92.0852 54.8906 92.2713C55.8467 92.4759 56.6528 92.6991 57.2902 92.9224C57.9276 93.1456 58.4712 93.5177 58.9399 94.0386C59.4086 94.5408 59.6335 95.2292 59.6335 96.1035C59.6335 96.8476 59.4273 97.5359 58.9961 98.1498C58.5837 98.7637 57.9463 99.2474 57.1027 99.6195C56.2591 99.9915 55.228 100.159 54.0282 100.159C52.9972 100.159 52.0036 100.029 51.0475 99.7869H51.0287Z" fill="white"/>
<path d="M63.0829 41.5221V40.8338H43.38V33.0019H19.7404V60.4042H63.1016V54.9907V41.5035L63.0829 41.5221ZM59.1461 44.7404V48.6657H43.3613V44.7404H59.1461ZM43.3613 56.4976V52.5723H59.1461V56.4976H43.3613ZM23.6584 36.9085H39.4432V40.8338H23.6584V36.9085ZM23.6584 44.7404H39.4432V48.6657H23.6584V44.7404ZM23.6584 52.5723H39.4432V56.4976H23.6584V52.5723Z" fill="#CADAE8"/>
</g>
<defs>
<clipPath id="clip0_12_781">
<rect width="84.7917" height="110" fill="white"/>
</clipPath>
</defs>
</svg>
