<svg width="85" height="110" viewBox="0 0 85 110" fill="none" xmlns="http://www.w3.org/2000/svg">
<g clip-path="url(#clip0_12_406)">
<path d="M76.8243 110H7.96738C3.56189 110 0 106.465 0 102.094V7.90631C0 3.53458 3.56189 0 7.96738 0H60.8145L84.7917 23.3841V102.094C84.7917 106.465 81.2298 110 76.8243 110Z" fill="#E8EDF3"/>
<path d="M0 76.6261H84.7917V102.094C84.7917 106.465 81.211 110 76.8243 110H7.96738C3.56189 110 0 106.447 0 102.094V76.6261Z" fill="#FFB11F"/>
<path d="M60.8145 0V15.4778C60.8145 19.8495 64.3764 23.3841 68.7819 23.3841H84.7916L60.8145 0Z" fill="#CADAE8"/>
<path d="M36.8187 97.0894V99.8985H25.4956V97.6661L31.8695 90.1505H25.6456V87.3414H36.5375V89.5738L30.1636 97.0894H36.8187Z" fill="white"/>
<path d="M38.3934 87.3604H41.974V99.9175H38.3934V87.3604Z" fill="white"/>
<path d="M53.2971 87.9181C54.1407 88.2902 54.7968 88.8297 55.2467 89.5366C55.6966 90.2435 55.9403 91.062 55.9403 92.0108C55.9403 92.9596 55.7154 93.7781 55.2467 94.4664C54.778 95.1547 54.1407 95.6942 53.2971 96.0663C52.4534 96.4383 51.4599 96.6244 50.3163 96.6244H48.1042V99.8985H44.5236V87.3414H50.2976C51.4411 87.3414 52.4347 87.5275 53.2783 87.8995L53.2971 87.9181ZM51.7598 93.3502C52.1348 93.034 52.3222 92.5875 52.3222 91.9922C52.3222 91.3969 52.1348 90.9504 51.7598 90.6342C51.3849 90.3179 50.8225 90.1505 50.0914 90.1505H48.1042V93.8339H50.0914C50.8225 93.8339 51.3849 93.6665 51.7598 93.3502Z" fill="white"/>
<path d="M45.161 56.7208V50.8236C45.161 50.1911 44.6548 49.6888 44.0174 49.6888H40.8117C40.1743 49.6888 39.6682 50.1911 39.6682 50.8236V56.7208L37.8685 61.9296C37.3623 63.3807 37.606 64.9992 38.5059 66.2642C39.387 67.5106 40.868 68.2547 42.4052 68.2547C43.9424 68.2547 45.4047 67.5106 46.3045 66.2642C47.2044 65.0178 47.4481 63.3993 46.9419 61.9296L45.1422 56.7208H45.161ZM44.4111 64.8875C43.4925 66.1898 41.3179 66.1898 40.3805 64.8875C39.9306 64.255 39.7994 63.3993 40.0619 62.6552L40.643 60.9065H44.1486L44.7673 62.6552C45.011 63.3993 44.8985 64.255 44.4111 64.8875ZM35.3002 18.045V21.2819C35.3002 21.9144 35.8063 22.4167 36.4437 22.4167H40.8117V27.2535H36.4437C35.8063 27.2535 35.3002 27.7558 35.3002 28.3883V30.8811C35.3002 31.5136 35.8063 32.0531 36.4437 32.0531H40.8117V36.8527H36.4437C35.8063 36.8527 35.3002 37.355 35.3002 37.9875V40.5175C35.3002 41.15 35.8063 41.6523 36.4437 41.6523H40.8117V45.3171C40.8117 45.9496 41.3554 46.4519 41.9928 46.4519H48.3854C49.0041 46.4519 49.529 45.9496 49.529 45.3171V42.7871C49.529 42.1732 48.9853 41.6523 48.3854 41.6523H43.9987V36.8527H48.3854C49.0041 36.8527 49.529 36.3504 49.529 35.7179V33.1879C49.529 32.5554 48.9853 32.0531 48.3854 32.0531H43.9987V27.2535H48.3854C49.0041 27.2535 49.529 26.714 49.529 26.0815V23.5887C49.529 22.9562 48.9853 22.4167 48.3854 22.4167H43.9987V18.0078L35.3002 18.0264V18.045Z" fill="#CADAE8"/>
</g>
<defs>
<clipPath id="clip0_12_406">
<rect width="84.7917" height="110" fill="white"/>
</clipPath>
</defs>
</svg>
